<svg width="58" height="62" viewBox="0 0 58 62" fill="none" xmlns="http://www.w3.org/2000/svg">
<path d="M2.44108 20.1753C1.00976 22.9681 12.4559 31.8674 18.358 35.9679C12.4097 42.7213 1.60599 56.8385 5.9774 59.28C10.3488 61.7215 22.5715 48.8069 28.1364 42.0445C34.4172 49.3029 47.9868 62.4885 52.0179 57.1636C56.0491 51.8388 43.5336 41.7949 35.5871 36.4548C43.3629 35.9289 56.471 31.709 56.176 26.9067C55.8811 22.1044 42.3188 25.5901 35.2255 27.7139C39.6048 20.1881 46.4687 5.42607 42.7179 3.04883C38.967 0.671586 32.5005 13.2537 31.0283 20.5778C26.9928 13.7878 15.3618 0.583463 13.0611 2.53994C10.7603 4.49642 18.0743 19.5138 22.7968 26.8728C16.0894 23.4134 3.8724 17.3826 2.44108 20.1753Z" stroke="#8B85FF" stroke-width="3" stroke-linejoin="round"/>
</svg>
